<svg width="66" height="58" viewBox="0 0 66 58" fill="none" xmlns="http://www.w3.org/2000/svg">
<path d="M34.375 25.9792L32.3125 32.0208L34.375 34.4375L36.4375 32.0208L34.375 25.9792Z" fill="#EF5DA8"/>
<path fill-rule="evenodd" clip-rule="evenodd" d="M46.7514 21.3065C46.5825 21.232 46.3924 21.1456 46.1853 21.0478C45.3692 20.6626 44.2731 20.0924 43.1687 19.3557C41.0468 17.9401 38.5 15.6456 38.5 12.625C38.5 9.93533 40.8158 7.25 44.2578 7.25C45.8564 7.25 47.1505 7.81022 48.125 8.6475C49.0995 7.81024 50.3936 7.25 51.9922 7.25C55.4346 7.25 57.75 9.9358 57.75 12.625C57.75 15.5522 55.1904 17.8487 53.0908 19.2746C51.991 20.0216 50.8989 20.6096 50.086 21.0097C49.8711 21.1154 49.6746 21.2085 49.5014 21.2887C49.5092 23.3956 49.548 25.4074 49.5848 27.3121C49.6654 31.4866 49.7362 35.147 49.4479 38.1691C49.0112 42.7464 47.7191 46.4198 43.8589 48.4067C40.0613 50.3615 34.4516 51.0961 29.8059 50.5994C27.4737 50.3502 25.2477 49.7775 23.5643 48.7894C22.338 48.0696 21.3668 47.1024 20.9099 45.8881C18.0533 45.7737 15.2134 45.3158 12.9656 44.4968C10.5397 43.613 8.25 42.0797 8.25 39.6812V15.8559H8.25402C8.25135 15.8068 8.25 15.7576 8.25 15.7083C8.25 12.3716 14.4061 9.66667 22 9.66667C29.5938 9.66667 35.75 12.3716 35.75 15.7083C35.75 15.7576 35.7486 15.8068 35.746 15.8559H35.75V23.044C40.4144 23.6303 44 27.1555 44 31.4167C44 35.6782 40.4137 39.2038 35.7486 39.7896C35.6847 42.2242 33.4697 43.7655 31.0262 44.6393C29.0069 45.3616 26.5174 45.7612 23.9727 45.8793C24.248 46.2034 24.6201 46.5028 25.0918 46.7798C26.289 47.4825 28.049 47.9772 30.1378 48.2004C34.3339 48.649 39.3062 47.9494 42.4691 46.3215C45.0974 44.9686 46.2858 42.3877 46.7075 37.9672C46.9844 35.064 46.9171 31.6088 46.8374 27.5296C46.7996 25.5978 46.7592 23.5258 46.7514 21.3065ZM44.2578 9.66667C42.6338 9.66667 41.25 10.9908 41.25 12.625C41.25 14.4306 42.8282 16.0945 44.8313 17.4308C45.7894 18.0699 46.7558 18.5739 47.4866 18.9189C47.7235 19.0308 47.934 19.1251 48.1092 19.2011C48.2868 19.1203 48.5009 19.0199 48.7421 18.9011C49.4761 18.5399 50.4465 18.0163 51.4092 17.3625C53.4346 15.987 55 14.325 55 12.625C55 10.991 53.6163 9.66667 51.9922 9.66667C50.8601 9.66667 49.9581 10.2202 49.3274 11.2197L48.125 13.1254L46.9226 11.2197C46.2917 10.2201 45.3899 9.66667 44.2578 9.66667ZM22 21.75C26.4979 21.75 30.4913 20.8011 33 19.3339V23.044C28.3356 23.6303 24.75 27.1555 24.75 31.4167C24.75 35.6768 28.3338 39.2012 32.9966 39.7888C32.9358 40.7293 32.0709 41.6566 29.9894 42.401C27.8931 43.1508 24.9961 43.5284 22.0157 43.4986C21.5916 43.4943 21.1691 43.4818 20.75 43.4613V21.7254C21.1617 21.7417 21.5787 21.75 22 21.75ZM33 15.7083C33 15.9682 32.6888 16.8541 30.4928 17.8189C28.4614 18.7115 25.4627 19.3333 22 19.3333C18.5373 19.3333 15.5386 18.7115 13.5071 17.8189C11.3112 16.8541 11 15.9682 11 15.7083C11 15.4484 11.3112 14.5626 13.5071 13.5977C15.5386 12.7051 18.5373 12.0833 22 12.0833C25.4627 12.0833 28.4614 12.7051 30.4928 13.5977C32.6888 14.5626 33 15.4484 33 15.7083ZM34.375 37.4583C38.1719 37.4583 41.25 34.7534 41.25 31.4167C41.25 28.08 38.1719 25.375 34.375 25.375C30.5781 25.375 27.5 28.08 27.5 31.4167C27.5 34.7534 30.5781 37.4583 34.375 37.4583Z" fill="#CC197D"/>
</svg>
