<svg width="57" height="56" viewBox="0 0 57 56" fill="none" xmlns="http://www.w3.org/2000/svg">
<rect x="2.5" y="2" width="52" height="52" rx="26" fill="#CC197D"/>
<path d="M19.27 26C18.84 26 18.5 25.66 18.5 25.23V22.92C18.5 20.21 20.71 18 23.42 18H25.73C26.16 18 26.5 18.34 26.5 18.77C26.5 19.2 26.16 19.54 25.73 19.54H23.42C21.55 19.54 20.04 21.06 20.04 22.92V25.23C20.04 25.66 19.69 26 19.27 26Z" fill="white"/>
<path d="M37.73 26C37.31 26 36.96 25.66 36.96 25.23V22.92C36.96 21.05 35.44 19.54 33.58 19.54H31.27C30.84 19.54 30.5 19.19 30.5 18.77C30.5 18.35 30.84 18 31.27 18H33.58C36.29 18 38.5 20.21 38.5 22.92V25.23C38.5 25.66 38.16 26 37.73 26Z" fill="white"/>
<path d="M33.58 38H32.19C31.77 38 31.42 37.66 31.42 37.23C31.42 36.81 31.76 36.46 32.19 36.46H33.58C35.45 36.46 36.96 34.94 36.96 33.08V31.7C36.96 31.28 37.3 30.93 37.73 30.93C38.15 30.93 38.5 31.27 38.5 31.7V33.08C38.5 35.79 36.29 38 33.58 38Z" fill="white"/>
<path d="M25.73 38H23.42C20.71 38 18.5 35.79 18.5 33.08V30.77C18.5 30.34 18.84 30 19.27 30C19.7 30 20.04 30.34 20.04 30.77V33.08C20.04 34.95 21.56 36.46 23.42 36.46H25.73C26.15 36.46 26.5 36.8 26.5 37.23C26.5 37.66 26.16 38 25.73 38Z" fill="white"/>
<path d="M34.96 27.23H33.6H23.4H22.04C21.61 27.23 21.27 27.58 21.27 28C21.27 28.42 21.61 28.77 22.04 28.77H23.4H33.6H34.96C35.39 28.77 35.73 28.42 35.73 28C35.73 27.58 35.39 27.23 34.96 27.23Z" fill="white"/>
<path d="M23.4 29.94V30.27C23.4 31.93 24.74 33.27 26.4 33.27H30.6C32.26 33.27 33.6 31.93 33.6 30.27V29.94C33.6 29.82 33.51 29.73 33.39 29.73H23.61C23.49 29.73 23.4 29.82 23.4 29.94Z" fill="white"/>
<path d="M23.4 26.06V25.73C23.4 24.07 24.74 22.73 26.4 22.73H30.6C32.26 22.73 33.6 24.07 33.6 25.73V26.06C33.6 26.18 33.51 26.27 33.39 26.27H23.61C23.49 26.27 23.4 26.18 23.4 26.06Z" fill="white"/>
<rect x="2.5" y="2" width="52" height="52" rx="26" stroke="white" stroke-width="4"/>
</svg>
