<svg width="59" height="56" viewBox="0 0 59 56" fill="none" xmlns="http://www.w3.org/2000/svg">
<path fill-rule="evenodd" clip-rule="evenodd" d="M12.7153 13.9861C10.9207 16.1537 9.83335 19.1151 9.83335 22.2069C9.83335 24.0009 10.1584 25.7174 10.7307 27.3518H21.4062L25.5706 20.3247L28.1729 28.9693L31.3572 25.0833H39.3334V27.4167H32.5595L27.1397 34.0307L24.8253 26.3419L22.8438 29.6851H4.91669V27.3518H8.15661C7.65813 25.72 7.37502 24.0021 7.37502 22.2069C7.37502 18.6191 8.63028 15.1438 10.7823 12.5445C12.9402 9.93794 16.0481 8.16667 19.705 8.16667C24.0115 8.16667 27.2864 10.4573 29.5 13.6894C31.7135 10.4574 34.9884 8.16667 39.295 8.16667C42.9523 8.16667 46.0602 9.93826 48.218 12.5448C50.3699 15.1444 51.625 18.6197 51.625 22.2069C51.625 29.8865 46.0401 36.2996 40.7562 40.677C38.084 42.8908 35.4177 44.6431 33.422 45.8413C32.423 46.4412 31.5887 46.9041 31.0017 47.2183C30.708 47.3754 30.476 47.4956 30.3157 47.5771C30.2357 47.618 30.1735 47.6491 30.1305 47.6705L30.0807 47.6951L30.0668 47.7019L30.0627 47.704L30.0614 47.7045C30.0614 47.7045 30.0605 47.705 29.5 46.6667C28.9668 47.7178 28.9664 47.7177 28.9664 47.7177L28.9591 47.7143L28.942 47.7064L28.8799 47.6775C28.8266 47.6524 28.7492 47.6156 28.6499 47.5677C28.4513 47.4716 28.1643 47.3298 27.8033 47.144C27.0815 46.7723 26.0623 46.2232 24.8609 45.5079C22.4625 44.0799 19.3165 41.977 16.358 39.2865C14.7799 37.8513 13.2471 36.2418 11.9077 34.4705C11.5119 33.947 11.6381 33.218 12.1896 32.8424C12.7411 32.4667 13.5091 32.5865 13.9048 33.11C15.1395 34.7428 16.567 36.2451 18.0587 37.6017C20.86 40.1491 23.8597 42.1574 26.1673 43.5313C27.3189 44.2169 28.2926 44.7413 28.9755 45.093C29.1694 45.1928 29.3397 45.2787 29.4838 45.3502C29.5766 45.3017 29.6802 45.2468 29.7942 45.1858C30.3497 44.8884 31.148 44.4457 32.1079 43.8694C34.0302 42.7152 36.5879 41.0332 39.1396 38.9191C44.3037 34.6409 49.1667 28.824 49.1667 22.2069C49.1667 19.1156 48.0795 16.1541 46.285 13.9865C44.4965 11.8259 42.054 10.5 39.295 10.5C35.4811 10.5 32.523 12.8576 30.6033 16.5688L29.5 18.7018L28.3967 16.5688C26.4769 12.8574 23.5188 10.5 19.705 10.5C16.9463 10.5 14.5038 11.8257 12.7153 13.9861ZM29.5 46.6667L28.9664 47.7177L29.5171 47.9693L30.0614 47.7045L29.5 46.6667Z" fill="#CC197D"/>
</svg>
