<svg width="61" height="61" viewBox="0 0 61 61" fill="none" xmlns="http://www.w3.org/2000/svg">
<circle cx="30.5" cy="30.5" r="30" fill="white" stroke="#CC197D"/>
<path d="M10.3342 11.2335C9.54427 11.5478 9.05296 12.2303 9.04333 13.0116C9.0337 13.9815 7.47307 12.4369 23.9945 27.919C31.7783 35.2111 33.5605 36.9263 33.5316 37.088C33.4931 37.3394 29.6012 41.0573 28.7823 41.623C28.0791 42.108 26.8364 42.6558 25.873 42.8983C24.823 43.1677 22.7518 43.1677 21.6921 42.8983C20.1893 42.5211 18.7924 41.7757 17.7231 40.7789C16.9717 40.0784 16.6345 39.6384 16.1143 38.6865C15.4592 37.4741 15.2955 36.7647 15.2955 35.1572C15.2955 33.6215 15.44 32.939 16.018 31.8075C16.6249 30.6041 16.8561 30.3437 19.3415 28.0447C20.7769 26.7246 21.143 26.3385 21.0274 26.2756C20.6131 26.0241 17.935 26.0511 16.9813 26.3205C16.0276 26.5809 15.1799 27.0659 14.467 27.7394C9.75621 32.2386 9.86217 39.1804 14.7078 43.7424C16.6441 45.5564 19.5149 46.8586 22.0389 47.0562C22.4146 47.0831 22.9155 47.128 23.166 47.146C23.7826 47.2088 25.4492 47.0382 26.374 46.8227C28.0309 46.4455 29.3796 45.8618 30.6416 44.9727C31.6146 44.2902 39.4466 37.1508 39.4081 36.9802C39.3792 36.8545 32.5876 30.3976 24.5918 22.899C21.432 19.9355 17.3956 16.1457 15.623 14.4664C13.4747 12.4369 12.2802 11.3682 12.0201 11.2604C11.5577 11.0629 10.7966 11.0449 10.3342 11.2335Z" fill="#CC197D"/>
<path d="M20.1797 29.7061C18.4167 31.3316 17.9832 31.8524 17.5883 32.7505C16.3263 35.6601 17.4534 38.8571 20.3338 40.5095C22.8385 41.9374 25.9309 41.659 28.2718 39.7821C28.9076 39.2792 31.1522 37.1239 31.2196 36.9533C31.2389 36.9173 30.9981 36.6479 30.6994 36.3606C29.4856 35.1841 21.9426 28.1525 21.8944 28.1525C21.8655 28.1525 21.0949 28.853 20.1797 29.7061Z" fill="#CC197D"/>
<path d="M30.3697 21.0548C30.3742 21.0271 30.3879 21.0022 30.3969 20.9868C30.408 20.968 30.4225 20.9472 30.439 20.9251C30.4721 20.8808 30.5183 20.8254 30.5749 20.7613C30.6882 20.6325 30.848 20.4631 31.04 20.2663C31.4242 19.8724 31.9408 19.3655 32.4813 18.8492C33.0219 18.3329 33.5872 17.8065 34.0687 17.3737C34.5483 16.9426 34.9499 16.5996 35.1608 16.4538L35.1609 16.4538C35.8752 15.9613 37.129 15.409 38.1024 15.164C38.6391 15.0263 39.4289 14.9589 40.2138 14.9589C40.9988 14.9589 41.7908 15.0263 42.3323 15.1639C43.8504 15.5449 45.2626 16.2981 46.3451 17.3071C47.1048 18.0154 47.4484 18.4641 47.9734 19.4247L47.9737 19.4252C48.3035 20.0356 48.5126 20.5248 48.6382 21.0666C48.7636 21.6074 48.8045 22.1955 48.8045 23.002C48.8045 23.7723 48.7684 24.3351 48.6578 24.8494C48.547 25.3647 48.3625 25.8267 48.0712 26.3969C47.7659 27.0022 47.5519 27.3765 47.0996 27.8884C46.6512 28.3959 45.9677 29.0397 44.7264 30.1878L44.7262 30.188C44.0081 30.8485 43.5602 31.2728 43.3064 31.5394C43.1783 31.6739 43.105 31.7628 43.0705 31.8187C43.0691 31.821 43.0678 31.8232 43.0666 31.8252C43.1709 31.896 43.2913 32.0028 43.4287 32.1304C43.4826 32.1804 43.5394 32.234 43.5996 32.2908C43.7178 32.4022 43.8493 32.5262 43.9982 32.6608C44.4384 33.059 45.0211 33.5418 45.7991 34.0119C46.0184 33.941 46.3351 33.7561 46.7077 33.4963C47.0998 33.2229 47.5427 32.8747 47.9794 32.5124C48.8524 31.7882 49.6959 31.0122 50.0516 30.6762C54.7124 26.2245 54.0363 19.0206 49.2237 14.4896C47.3031 12.6903 44.4535 11.3985 41.9536 11.2027C41.7652 11.1892 41.5457 11.1712 41.3423 11.1544L41.2813 11.1493C41.1014 11.1344 40.9388 11.121 40.8268 11.1129L40.8268 11.113L40.8238 11.1127C40.5267 11.0824 39.9649 11.1082 39.3557 11.1699C38.7487 11.2314 38.1055 11.3274 37.6487 11.4339L37.6482 11.434C36.0026 11.8086 34.6663 12.3874 33.416 13.2682L33.4158 13.2683C33.1783 13.4349 32.5115 14.0044 31.6389 14.7742C30.7689 15.5417 29.7003 16.5031 28.6632 17.4486C27.6261 18.3941 26.6208 19.3234 25.8773 20.0268C25.5055 20.3786 25.1998 20.6733 24.9884 20.8852C24.8826 20.9913 24.8015 21.0756 24.7478 21.1354C24.7352 21.1494 24.7245 21.1616 24.7155 21.1722C24.7247 21.1822 24.7354 21.1936 24.7477 21.2065C24.8 21.2616 24.8776 21.3403 24.9795 21.4417C25.183 21.6444 25.4815 21.9358 25.8643 22.3058C26.6297 23.0457 27.731 24.0987 29.0814 25.3823C31.7822 27.9493 35.4789 31.4381 39.4766 35.1872L39.4082 35.2602L39.4766 35.1872C42.6363 38.1506 46.6728 41.9405 48.4457 43.6201C49.5196 44.6347 50.3545 45.4084 50.9531 45.9418C51.2524 46.2085 51.4919 46.4144 51.6722 46.5599C51.7623 46.6328 51.8369 46.6898 51.8961 46.7315C51.9571 46.7745 51.9966 46.7974 52.0182 46.8063L52.0192 46.8068C52.2353 46.8991 52.5276 46.9516 52.8247 46.957C53.122 46.9625 53.4133 46.9206 53.628 46.8331L53.6288 46.8328C54.3849 46.5319 54.8476 45.8832 54.8567 45.1463L54.9567 45.1476L54.8567 45.1466C54.8576 45.0526 54.8732 44.9711 54.885 44.9096C54.8894 44.8867 54.8932 44.8666 54.8956 44.8497C54.9045 44.7863 54.9037 44.7265 54.8575 44.6291C54.8083 44.5251 54.7081 44.3797 54.5109 44.1523C54.3148 43.926 54.0275 43.6238 53.6096 43.2067C52.1982 41.7982 49.3151 39.0978 43.4829 33.6349C42.4049 32.6251 41.226 31.521 39.9371 30.3131C36.0453 26.6672 33.6533 24.4149 32.2378 23.0539C31.5303 22.3735 31.0657 21.9148 30.7795 21.6157C30.6367 21.4665 30.5365 21.3551 30.4725 21.2749C30.4407 21.2351 30.4156 21.2002 30.3985 21.1706C30.39 21.1558 30.3819 21.1397 30.3763 21.1229C30.3713 21.108 30.3649 21.0832 30.3697 21.0548ZM30.3697 21.0548C30.3696 21.0552 30.3696 21.0556 30.3695 21.0561L30.4684 21.0712L30.3699 21.0536C30.3698 21.054 30.3698 21.0544 30.3697 21.0548ZM47.8857 19.4727C47.3655 18.5208 47.0283 18.0807 46.2769 17.3803C45.2076 16.3835 43.8107 15.6381 42.3079 15.2609C41.2482 14.9915 39.177 14.9915 38.127 15.2609C37.1636 15.5034 35.9209 16.0512 35.2177 16.5361L47.8857 19.4727ZM47.8857 19.4727C48.5408 20.685 48.7045 21.3945 48.7045 23.002M47.8857 19.4727L48.7045 23.002M48.7045 23.002C48.7045 24.5376 48.56 25.2201 47.982 26.3517M48.7045 23.002L47.982 26.3517M47.982 26.3517C47.3751 27.555 47.1439 27.8155 44.6585 30.1144L47.982 26.3517Z" stroke="#C5C1C1" stroke-width="0.2"/>
<path d="M43.7521 28.3799L43.7525 28.3795C45.5152 26.7544 45.9343 26.2457 46.3201 25.3687C47.5603 22.509 46.4557 19.3653 43.6166 17.7365C41.1492 16.33 38.1012 16.6027 35.7908 18.4551L35.7902 18.4555C35.4767 18.7035 34.7601 19.3646 34.1104 19.9882C33.7863 20.2994 33.4802 20.5998 33.2513 20.8327C33.1368 20.9493 33.0422 21.0483 32.9744 21.1231C32.9405 21.1606 32.9141 21.1911 32.8956 21.2141C32.895 21.2149 32.8944 21.2157 32.8938 21.2164C32.9152 21.2467 32.9499 21.2893 32.9962 21.3418C33.089 21.4469 33.2219 21.5841 33.3699 21.7265L33.3702 21.7268C33.9762 22.3142 36.1645 24.3654 38.2084 26.2706C39.2301 27.2231 40.2153 28.1387 40.948 28.8162C41.3144 29.1549 41.6176 29.434 41.8306 29.6283C41.9371 29.7256 42.0208 29.8013 42.0786 29.8527C42.0896 29.8625 42.0997 29.8714 42.1087 29.8794C42.1306 29.861 42.1582 29.8373 42.1913 29.8085C42.2812 29.7301 42.4082 29.6164 42.5634 29.4757C42.8736 29.1944 43.2948 28.8063 43.7521 28.3799ZM35.7282 18.3771C35.0924 18.88 32.8478 21.0353 32.7804 21.2059L43.8203 28.4531C45.5833 26.8276 46.0168 26.3067 46.4117 25.4087C47.6737 22.4991 46.5466 19.3021 43.6662 17.6497C41.1615 16.2218 38.0691 16.5002 35.7282 18.3771Z" stroke="#C5C1C1" stroke-width="0.2"/>
</svg>
