<svg width="41" height="40" viewBox="0 0 41 40" fill="none" xmlns="http://www.w3.org/2000/svg">
<g clip-path="url(#clip0_9_942)">
<path d="M20.5 40C31.8218 40 41 31.0457 41 20C41 8.9543 31.8218 0 20.5 0C9.17816 0 0 8.9543 0 20C0 31.0457 9.17816 40 20.5 40Z" fill="url(#paint0_radial_9_942)"/>
<path opacity="0.5" d="M25.4764 27.5001C25.7185 27.5076 25.953 27.551 26.1801 27.6304H26.2028C26.2182 27.6379 26.2297 27.6462 26.2374 27.6537C26.3224 27.6817 26.4027 27.7133 26.4796 27.7567L26.6256 27.8238C26.6833 27.8554 26.7525 27.9142 26.7909 27.9383C26.8293 27.9616 26.8716 27.9856 26.9062 28.0129C27.3333 27.6778 27.8518 27.4962 28.386 27.5001C28.6286 27.5001 28.8707 27.5353 29.101 27.6146C30.5197 28.0883 31.0309 29.6869 30.6039 31.0843C30.3617 31.7983 29.9658 32.45 29.4473 32.9825C28.7051 33.7207 27.8906 34.3759 27.0138 34.9404L26.9177 35L26.8178 34.9364C25.938 34.3759 25.1189 33.7207 24.3698 32.9786C23.8547 32.4461 23.4584 31.7983 23.2124 31.0843C22.7781 29.6869 23.2893 28.0883 24.7234 27.6063C24.8348 27.5668 24.9498 27.5392 25.0651 27.5238H25.1112C25.2192 27.5076 25.3265 27.5001 25.4341 27.5001H25.4764Z" fill="white"/>
<path opacity="0.8" d="M12.1768 25.8333C12.2845 25.8367 12.3887 25.856 12.4896 25.8913H12.4997C12.5065 25.8946 12.5117 25.8983 12.5151 25.9016C12.5528 25.9141 12.5885 25.9281 12.6227 25.9474L12.6876 25.9772C12.7132 25.9913 12.744 26.0174 12.7611 26.0281C12.7782 26.0385 12.7969 26.0492 12.8123 26.0613C13.0021 25.9123 13.2326 25.8316 13.47 25.8333C13.5778 25.8333 13.6854 25.849 13.7878 25.8842C14.4183 26.0948 14.6455 26.8053 14.4557 27.4263C14.3481 27.7437 14.1721 28.0333 13.9417 28.27C13.6118 28.5981 13.2498 28.8893 12.8602 29.1402L12.8174 29.1666L12.773 29.1384C12.382 28.8893 12.018 28.5981 11.685 28.2682C11.4561 28.0316 11.28 27.7437 11.1706 27.4263C10.9776 26.8053 11.2048 26.0948 11.8422 25.8806C11.8917 25.863 11.9428 25.8507 11.994 25.8439H12.0145C12.0625 25.8367 12.1102 25.8333 12.158 25.8333H12.1768Z" fill="white"/>
<path opacity="0.7" d="M11.2734 8.33336C11.4618 8.33924 11.6441 8.37301 11.8208 8.43472H11.8385C11.8504 8.44056 11.8594 8.447 11.8654 8.45284C11.9314 8.47464 11.9939 8.4992 12.0537 8.53297L12.1673 8.58516C12.2122 8.60972 12.266 8.65547 12.2959 8.67419C12.3258 8.69231 12.3586 8.71103 12.3856 8.73222C12.7177 8.47157 13.121 8.33034 13.5365 8.33336C13.7252 8.33336 13.9135 8.36073 14.0926 8.42244C15.196 8.79086 15.5936 10.0343 15.2615 11.1211C15.0732 11.6765 14.7652 12.1833 14.3619 12.5975C13.7847 13.1716 13.1512 13.6813 12.4693 14.1203L12.3945 14.1666L12.3168 14.1172C11.6325 13.6813 10.9954 13.1716 10.4127 12.5944C10.0121 12.1803 9.70392 11.6765 9.51259 11.1211C9.17477 10.0343 9.57238 8.79086 10.6878 8.416C10.7745 8.38529 10.8639 8.3638 10.9536 8.35183H10.9894C11.0734 8.33924 11.1568 8.33336 11.2406 8.33336H11.2734Z" fill="white"/>
<path opacity="0.34" d="M33.2132 15.8334C33.3747 15.8384 33.531 15.8673 33.6824 15.9202H33.6975C33.7078 15.9252 33.7155 15.9308 33.7206 15.9358C33.7772 15.9544 33.8308 15.9755 33.882 16.0044L33.9794 16.0492C34.0179 16.0702 34.064 16.1094 34.0896 16.1255C34.1152 16.141 34.1434 16.1571 34.1665 16.1752C34.4512 15.9518 34.7968 15.8308 35.153 15.8334C35.3147 15.8334 35.4762 15.8568 35.6297 15.9097C36.5755 16.2255 36.9163 17.2913 36.6316 18.2228C36.4701 18.6989 36.2062 19.1333 35.8605 19.4883C35.3657 19.9804 34.8227 20.4173 34.2382 20.7936L34.1742 20.8333L34.1075 20.7909C33.521 20.4173 32.9749 19.9804 32.4755 19.4857C32.1321 19.1307 31.8679 18.6989 31.7039 18.2228C31.4144 17.2913 31.7552 16.2255 32.7113 15.9042C32.7856 15.8779 32.8622 15.8594 32.9391 15.8492H32.9698C33.0418 15.8384 33.1133 15.8334 33.1851 15.8334H33.2132Z" fill="white"/>
<g filter="url(#filter0_d_9_942)">
<path d="M16.3694 10.8335C17.0689 10.8537 17.7463 10.9695 18.4025 11.1811H18.468C18.5124 11.2011 18.5458 11.2232 18.568 11.2432C18.8134 11.3179 19.0454 11.4021 19.2675 11.5179L19.6895 11.6968C19.856 11.7811 20.0559 11.9379 20.1669 12.0021C20.278 12.0642 20.4001 12.1284 20.5001 12.2011C21.7337 11.3074 23.2317 10.8232 24.7751 10.8335C25.4758 10.8335 26.1753 10.9274 26.8405 11.139C30.939 12.4021 32.4158 16.6652 31.1822 20.3914C30.4826 22.2956 29.3389 24.0335 27.841 25.4535C25.6968 27.4219 23.3438 29.1692 20.811 30.6744L20.5334 30.8334L20.2447 30.6639C17.703 29.1692 15.3367 27.4219 13.1725 25.4429C11.6846 24.023 10.5397 22.2956 9.82907 20.3914C8.57431 16.6652 10.0512 12.4021 14.1941 11.1169C14.5161 11.0116 14.8481 10.9379 15.1812 10.8969H15.3145C15.6265 10.8537 15.9363 10.8335 16.2472 10.8335H16.3694Z" fill="white"/>
</g>
</g>
<defs>
<filter id="filter0_d_9_942" x="7.396" y="8.83337" width="30.2085" height="28" filterUnits="userSpaceOnUse" color-interpolation-filters="sRGB">
<feFlood flood-opacity="0" result="BackgroundImageFix"/>
<feColorMatrix in="SourceAlpha" type="matrix" values="0 0 0 0 0 0 0 0 0 0 0 0 0 0 0 0 0 0 127 0" result="hardAlpha"/>
<feOffset dx="2" dy="2"/>
<feGaussianBlur stdDeviation="2"/>
<feColorMatrix type="matrix" values="0 0 0 0 0 0 0 0 0 0 0 0 0 0 0 0 0 0 0.14 0"/>
<feBlend mode="color-burn" in2="BackgroundImageFix" result="effect1_dropShadow_9_942"/>
<feBlend mode="normal" in="SourceGraphic" in2="effect1_dropShadow_9_942" result="shape"/>
</filter>
<radialGradient id="paint0_radial_9_942" cx="0" cy="0" r="1" gradientUnits="userSpaceOnUse" gradientTransform="translate(20.5 20) rotate(-90) scale(20 20.5)">
<stop stop-color="#FF3D00"/>
<stop offset="1" stop-color="#FD313D"/>
</radialGradient>
<clipPath id="clip0_9_942">
<rect width="41" height="40" fill="white"/>
</clipPath>
</defs>
</svg>
