<svg width="42" height="40" viewBox="0 0 42 40" fill="none" xmlns="http://www.w3.org/2000/svg">
<g clip-path="url(#clip0_9_928)">
<path d="M21 40C32.598 40 42 31.0457 42 20C42 8.95431 32.598 0 21 0C9.40202 0 0 8.95431 0 20C0 31.0457 9.40202 40 21 40Z" fill="url(#paint0_radial_9_928)"/>
<g filter="url(#filter0_d_9_928)">
<path fill-rule="evenodd" clip-rule="evenodd" d="M24.5999 12.5714L27.8486 15.192C28.0164 15.3518 28.1306 15.5555 28.1769 15.7772C28.1955 15.8662 28.2028 15.9565 28.199 16.0462C28.1996 16.0612 28.1999 16.0762 28.1999 16.0912V29.7143C28.1992 30.3203 27.9461 30.9013 27.4962 31.3298C27.0743 31.7315 26.5118 31.9684 25.9189 31.9971C25.8793 31.999 25.8397 31.9999 25.7999 32H16.1999C15.6431 31.9994 15.1065 31.8148 14.6796 31.4816C14.6186 31.434 14.5599 31.3833 14.5036 31.3298C14.0818 30.928 13.833 30.3923 13.803 29.8276C13.801 29.7899 13.7999 29.7521 13.7999 29.7143V16.0912V16.0142C13.7989 15.935 13.8065 15.8556 13.8228 15.7772C13.8691 15.5555 13.9834 15.3518 14.1511 15.192L14.1518 15.1915C14.1986 15.1469 14.249 15.1064 14.3022 15.0702L17.3998 12.5714H17.3999V9.14286C17.3999 8.83975 17.5263 8.54906 17.7514 8.33473C17.7795 8.30794 17.8089 8.28262 17.8394 8.25882C18.0018 8.1321 18.1959 8.04844 18.4021 8.01563C18.4477 8.00837 18.4939 8.0036 18.5404 8.0014C18.5602 8.00047 18.58 8 18.5999 8H20.9999H23.3999C23.7182 8 24.0234 8.12041 24.2484 8.33473C24.4735 8.54906 24.5999 8.83975 24.5999 9.14286V12.5714ZM23.5999 21.7143C24.1522 21.7143 24.5999 22.162 24.5999 22.7143V23C24.5999 23.5523 24.1522 24 23.5999 24H22.1999V25.2857C22.1999 25.838 21.7522 26.2857 21.1999 26.2857H20.7999C20.2476 26.2857 19.7999 25.838 19.7999 25.2857V24H18.3999C17.8476 24 17.3999 23.5523 17.3999 23V22.7143C17.3999 22.162 17.8476 21.7143 18.3999 21.7143H19.7999V20.4286C19.7999 19.8763 20.2476 19.4286 20.7999 19.4286H21.1999C21.7522 19.4286 22.1999 19.8763 22.1999 20.4286V21.7143H23.5999Z" fill="white"/>
</g>
</g>
<defs>
<filter id="filter0_d_9_928" x="11.7998" y="7" width="22.3999" height="32" filterUnits="userSpaceOnUse" color-interpolation-filters="sRGB">
<feFlood flood-opacity="0" result="BackgroundImageFix"/>
<feColorMatrix in="SourceAlpha" type="matrix" values="0 0 0 0 0 0 0 0 0 0 0 0 0 0 0 0 0 0 127 0" result="hardAlpha"/>
<feOffset dx="2" dy="3"/>
<feGaussianBlur stdDeviation="2"/>
<feColorMatrix type="matrix" values="0 0 0 0 0 0 0 0 0 0 0 0 0 0 0 0 0 0 0.14 0"/>
<feBlend mode="color-burn" in2="BackgroundImageFix" result="effect1_dropShadow_9_928"/>
<feBlend mode="normal" in="SourceGraphic" in2="effect1_dropShadow_9_928" result="shape"/>
</filter>
<radialGradient id="paint0_radial_9_928" cx="0" cy="0" r="1" gradientUnits="userSpaceOnUse" gradientTransform="translate(21 20) rotate(-90) scale(20 21)">
<stop stop-color="#CC197D"/>
<stop offset="1" stop-color="#CC197D"/>
</radialGradient>
<clipPath id="clip0_9_928">
<rect width="42" height="40" fill="white"/>
</clipPath>
</defs>
</svg>
