<svg width="42" height="40" viewBox="0 0 42 40" fill="none" xmlns="http://www.w3.org/2000/svg">
<g clip-path="url(#clip0_9_902)">
<path d="M21 40C32.598 40 42 31.0457 42 20C42 8.9543 32.598 0 21 0C9.40202 0 0 8.9543 0 20C0 31.0457 9.40202 40 21 40Z" fill="url(#paint0_radial_9_902)"/>
<g filter="url(#filter0_d_9_902)">
<path d="M24.6438 15.793L23.9199 17.2307C24.1126 17.4831 24.4649 17.5894 24.8135 17.5506C25.3278 17.4934 25.696 17.0499 25.636 16.5601C25.5786 16.0922 25.1301 15.7728 24.6438 15.793Z" fill="white"/>
<path d="M24.7666 17.1778C24.7655 17.178 24.7643 17.1781 24.7632 17.1782C24.6235 17.1933 24.5295 17.0447 24.6009 16.9294C24.7915 16.6218 24.9037 16.274 24.8916 15.953C24.8898 15.9054 24.885 15.8579 24.8789 15.8105C24.8026 15.7963 24.7238 15.7897 24.6438 15.7929L23.9199 17.2306C23.9406 17.2576 23.9637 17.2822 23.9879 17.3057C23.9976 17.3153 24.0078 17.3243 24.0181 17.3334C24.0316 17.3451 24.0458 17.3563 24.0602 17.3671C24.0944 17.3932 24.1305 17.4169 24.1689 17.4375C24.1692 17.4376 24.1693 17.4377 24.1696 17.4378C24.3552 17.5376 24.5845 17.5757 24.8132 17.5505C25.1546 17.5126 25.4439 17.2862 25.5713 16.9821C25.668 16.7515 25.6556 16.551 25.5909 16.3772C25.5493 16.7871 25.2133 17.1282 24.7666 17.1778Z" fill="white"/>
<path d="M22.3531 14.0298C21.9326 14.2009 21.5574 14.5328 21.5574 14.5328L20.8515 14.6095L20.8503 15.0817C20.8503 15.0817 20.3979 15.3897 20.2687 15.6283C20.1213 15.9005 20.1841 16.3817 20.2467 16.6645C20.2975 16.8942 20.4261 17.0789 20.5944 17.2335C20.8122 17.4335 21.0965 17.5826 21.3652 17.7125C21.6515 17.8509 22.0236 17.8203 22.3314 17.7879C22.4316 17.7774 22.5337 17.763 22.6363 17.7455C22.913 17.1145 22.3531 14.0298 22.3531 14.0298Z" fill="white"/>
<path d="M23.7542 14.1892C23.4407 13.9605 22.9172 13.8645 22.5355 13.9676C22.4745 13.984 22.4135 14.0053 22.3535 14.0297C22.3535 14.0297 22.9132 17.1145 22.6364 17.7454C22.9139 17.6977 23.1939 17.6245 23.4459 17.5241C24.1173 17.2566 24.6694 16.4378 24.643 15.7447C24.6202 15.1446 24.2441 14.5468 23.7542 14.1892Z" fill="white"/>
<path d="M23.7853 14.9356C23.3758 14.6844 22.8649 14.6546 22.4624 14.6847C22.4677 14.7189 22.4732 14.7537 22.4787 14.7898C22.8637 14.7622 23.3479 14.7911 23.7261 15.023C24.0802 15.24 24.3987 15.5961 24.6372 15.9127C24.6422 15.8562 24.645 15.7999 24.6429 15.7446C24.6429 15.7435 24.6428 15.7426 24.6426 15.7416C24.4102 15.4482 24.1149 15.1378 23.7853 14.9356Z" fill="white"/>
<path d="M23.4306 16.4099C23.1554 16.369 22.8863 16.2562 22.6528 16.1281C22.6572 16.1708 22.6612 16.2133 22.6651 16.2556C22.8918 16.3729 23.1483 16.4732 23.4138 16.5126C23.7486 16.5624 24.113 16.5851 24.4243 16.595C24.4423 16.5612 24.4593 16.5271 24.4753 16.4926C24.1577 16.4837 23.7776 16.4614 23.4306 16.4099Z" fill="white"/>
<path d="M24.3219 16.7689C24.0376 16.8656 23.7007 16.9607 23.406 16.9902C23.1688 17.014 22.9245 16.9685 22.709 16.9013C22.7104 16.9392 22.7112 16.9759 22.7119 17.0123C22.9298 17.0765 23.1749 17.1179 23.4175 17.0936C23.6768 17.0676 23.963 16.9945 24.22 16.9131C24.2561 16.8665 24.2897 16.8181 24.3219 16.7689Z" fill="white"/>
<path d="M11.1329 26.6618L6.44409 26.8908C6.31052 26.8974 6.18036 26.8497 6.08589 26.7596L4.86718 25.5989L4.96972 24.8177C4.98927 24.669 4.88905 24.5299 4.73647 24.4934C4.57884 24.4559 4.41737 24.5403 4.36597 24.6872L4.11577 25.402C4.07147 25.5289 4.07749 25.6666 4.13272 25.7894L4.45702 26.5104L4.56038 27.6915C4.58116 27.9283 4.72991 28.1377 4.95317 28.244C5.22839 28.3751 5.56089 28.3237 5.77854 28.1164L5.96093 27.9427L11.1501 28.1837C11.2324 28.1875 11.3147 28.1868 11.3969 28.1837L11.2052 26.6552C11.181 26.6571 11.1571 26.6606 11.1329 26.6618Z" fill="white"/>
<path d="M18.4609 26.5261C18.4609 26.5261 17.8917 26.1524 17.4334 25.6367L17.4333 25.6366C16.3815 25.7754 12.7768 26.25 12.66 26.25C12.5814 26.25 12.2313 26.3793 11.948 26.4891C11.7107 26.5811 11.4602 26.6358 11.2051 26.6554L11.3968 28.1839C11.5901 28.1767 11.7826 28.1517 11.9707 28.1069L12.2969 28.0292C12.5375 27.9719 12.786 27.9504 13.0336 27.9654L18.163 28.2772C18.7685 28.3141 19.374 28.2052 19.9239 27.961L20.6761 27.6266L20.6744 27.6254C19.8755 27.3809 19.1121 27.0311 18.4609 26.5261Z" fill="white"/>
<path d="M37.5919 27.6954L34.9651 26.638C34.7371 26.489 34.4352 26.4916 34.21 26.6453C34.052 26.7531 33.8488 26.7815 33.6615 26.7316L30.7816 25.9661C30.4093 25.8672 30.0183 25.8508 29.6383 25.9182L28.2231 26.0872V27.9377C28.5507 27.908 28.8783 27.8837 29.2057 27.872C30.5707 27.823 31.9359 27.7756 33.301 27.7276L37.3805 28.1521C37.4875 28.1757 37.5989 28.1346 37.661 28.0484C37.7442 27.9328 37.7133 27.7747 37.5919 27.6954Z" fill="white"/>
<path d="M19.2746 22.6106C18.4794 22.9162 17.602 22.9699 16.7636 22.798L16.7419 22.7936C16.7417 22.8177 16.7405 22.8416 16.7408 22.8657C16.7457 23.3382 16.7691 23.8761 16.8341 24.326L17.6679 24.241C18.4411 24.1494 19.1775 23.8733 19.8086 23.4381L20.4967 22.9541C20.3784 22.7192 20.3326 22.453 20.3701 22.1871L19.6434 22.451C19.5227 22.5093 19.3997 22.5626 19.2746 22.6106Z" fill="white"/>
<path d="M21.9685 18.7258L20.1097 18.0151L18.9271 18.5783C18.2369 18.9069 17.6974 19.4654 17.4109 20.1477L17.1556 20.7552C16.8831 21.4039 16.7445 22.0953 16.7422 22.7935L16.7639 22.7979C17.6021 22.9698 18.4797 22.9162 19.2749 22.6106C19.4 22.5625 19.523 22.5093 19.6438 22.4509L20.3704 22.187C20.3877 22.0651 20.4206 21.9434 20.4753 21.8249L20.4871 21.7978C20.5555 21.6412 20.6399 21.4913 20.7387 21.35L21.8161 19.811C22.0481 19.4793 22.091 19.0791 21.9685 18.7258Z" fill="white"/>
<path d="M17.4335 25.6366C17.2526 25.6604 16.995 25.6944 16.6937 25.734C17.1577 26.2716 17.7579 26.6666 17.7579 26.6666C17.9249 26.796 18.0992 26.9151 18.2796 27.0248C18.64 27.2438 18.4732 27.7811 18.0464 27.7574C18.0397 27.7571 18.033 27.7567 18.0263 27.7563L12.897 27.4444C12.6494 27.4293 12.401 27.4509 12.1603 27.5082L11.834 27.586C11.6689 27.6253 11.5004 27.6485 11.3311 27.6586L11.397 28.1838C11.5903 28.1766 11.7828 28.1516 11.9709 28.1068L12.2971 28.0291C12.5377 27.9718 12.7863 27.9503 13.0339 27.9653L18.1632 28.2771C18.7687 28.314 19.3742 28.2051 19.924 27.9608L20.6762 27.6265L17.4335 25.6366Z" fill="white"/>
<path d="M28.1465 26.0963C27.4603 26.1783 26.7638 26.1295 26.0976 25.9529L23.9448 25.3822C23.4837 25.26 23.0519 25.0535 22.6737 24.774C22.5763 24.702 22.489 24.6183 22.4143 24.5249L22.2367 24.3033C21.9948 24.0014 21.6669 23.7719 21.2922 23.6421C20.9267 23.5156 20.6519 23.2617 20.497 22.954L19.8089 23.438C19.1778 23.8732 18.4415 24.1494 17.6682 24.2408L16.8345 24.3259C16.8792 24.6347 16.9433 24.9025 17.0353 25.0778C17.4455 25.8591 18.4612 26.5257 18.4612 26.5257C19.4309 27.2778 20.6491 27.6867 21.863 27.9145C23.0021 28.1283 24.1716 28.1906 25.3309 28.1594C26.2932 28.1594 27.2585 28.0249 28.2232 27.9376V26.0872L28.1465 26.0963Z" fill="white"/>
<path d="M11.1501 27.6629L5.96093 27.4219L5.77841 27.5957C5.56075 27.803 5.22839 27.8543 4.95304 27.7233C4.72991 27.617 4.58102 27.4077 4.56024 27.1708L4.66934 26.5872L4.1494 25.306L4.11577 25.4022C4.07147 25.529 4.07749 25.6668 4.13272 25.7896L4.45702 26.5104L4.56038 27.6915C4.58116 27.9284 4.72991 28.1377 4.95317 28.244C5.22839 28.3751 5.56089 28.3237 5.77854 28.1164L5.96093 27.9427L11.1501 28.1837C11.2324 28.1875 11.3147 28.1868 11.3969 28.1837L11.3315 27.6629C11.2711 27.6642 11.2107 27.6657 11.1501 27.6629Z" fill="white"/>
<path d="M37.6099 27.7097C37.5468 27.759 37.4626 27.7795 37.3806 27.7614L33.301 27.3369C31.9359 27.3851 30.5707 27.4325 29.2057 27.4813C28.8783 27.493 28.5507 27.5174 28.2231 27.5471V27.9377C28.5507 27.908 28.8783 27.8837 29.2057 27.8719C30.5707 27.823 31.9359 27.7756 33.301 27.7275L37.3806 28.152C37.4875 28.1757 37.5989 28.1346 37.661 28.0484C37.7397 27.939 37.7153 27.7925 37.6099 27.7097Z" fill="white"/>
<path d="M21.863 27.5243C20.6491 27.2964 19.4309 26.8876 18.4612 26.1355C18.4612 26.1355 17.4455 25.4688 17.0353 24.6876C16.9843 24.5905 16.9421 24.464 16.9068 24.3188L16.8345 24.3263C16.8792 24.6351 16.9433 24.903 17.0353 25.0782C17.4455 25.8595 18.4612 26.5261 18.4612 26.5261C19.4309 27.2782 20.6491 27.6871 21.863 27.9149C23.0021 28.1287 24.1716 28.191 25.3309 28.1599C26.2932 28.1599 27.2585 28.0253 28.2232 27.938V27.5474C27.2583 27.6349 26.2931 27.7692 25.3309 27.7692C24.1716 27.8004 23.0021 27.7381 21.863 27.5243Z" fill="white"/>
<path d="M26.6016 10.859L26.1952 11.5365L24.5546 12.9688L23.3241 14.5313L19.7381 18.4176C19.5024 18.6729 19.4216 19.0261 19.5241 19.3517C19.6666 19.8038 20.1254 20.0964 20.6187 20.0494L20.6295 20.0483C20.9493 20.0179 21.236 19.8477 21.4056 19.5878L24.2811 15.1823L26.8788 12.1875L27.4408 12.1111C27.6521 12.0823 27.7908 11.8858 27.739 11.6887L27.6991 11.5365L28.4873 10.6919C28.6414 10.5268 28.5889 10.2676 28.3814 10.1688C28.2949 10.1275 28.1944 10.122 28.1034 10.1535L27.0078 10.533C26.8363 10.5923 26.6923 10.708 26.6016 10.859Z" fill="white"/>
</g>
</g>
<defs>
<filter id="filter0_d_9_902" x="1.5" y="1.33331" width="43" height="41.3333" filterUnits="userSpaceOnUse" color-interpolation-filters="sRGB">
<feFlood flood-opacity="0" result="BackgroundImageFix"/>
<feColorMatrix in="SourceAlpha" type="matrix" values="0 0 0 0 0 0 0 0 0 0 0 0 0 0 0 0 0 0 127 0" result="hardAlpha"/>
<feOffset dx="2" dy="2"/>
<feGaussianBlur stdDeviation="2"/>
<feColorMatrix type="matrix" values="0 0 0 0 0 0 0 0 0 0 0 0 0 0 0 0 0 0 0.14 0"/>
<feBlend mode="color-burn" in2="BackgroundImageFix" result="effect1_dropShadow_9_902"/>
<feBlend mode="normal" in="SourceGraphic" in2="effect1_dropShadow_9_902" result="shape"/>
</filter>
<radialGradient id="paint0_radial_9_902" cx="0" cy="0" r="1" gradientUnits="userSpaceOnUse" gradientTransform="translate(21 20) rotate(-90) scale(20 21)">
<stop stop-color="#C955FF"/>
<stop offset="1" stop-color="#7000FF"/>
</radialGradient>
<clipPath id="clip0_9_902">
<rect width="42" height="40" fill="white"/>
</clipPath>
</defs>
</svg>
