<svg width="33" height="46" viewBox="0 0 33 46" fill="none" xmlns="http://www.w3.org/2000/svg">
<path fill-rule="evenodd" clip-rule="evenodd" d="M16.5 43.7C24.3532 43.7 30.6429 37.6159 30.6429 30.202C30.6429 24.0417 26.8977 16.9937 22.811 11.2251C20.8079 8.39764 18.8003 5.98386 17.2926 4.27663C17.0091 3.95577 16.7438 3.66032 16.5 3.39227C16.2562 3.66032 15.9909 3.95577 15.7074 4.27663C14.1997 5.98386 12.1921 8.39764 10.189 11.2251C6.10229 16.9937 2.35714 24.0417 2.35714 30.202C2.35714 37.6159 8.64682 43.7 16.5 43.7ZM14.8968 1.69052C10.7514 6.22017 0 19.0437 0 30.202C0 38.927 7.38729 46 16.5 46C25.6127 46 33 38.927 33 30.202C33 19.0437 22.2486 6.22017 18.1032 1.69052C17.1132 0.608729 16.5 0 16.5 0C16.5 0 15.8868 0.608729 14.8968 1.69052Z" fill="#CC197D"/>
</svg>
