<svg width="56" height="56" viewBox="0 0 56 56" fill="none" xmlns="http://www.w3.org/2000/svg">
<path d="M43.2643 18.3576C43.8922 18.502 44.5184 18.11 44.6627 17.482C44.8071 16.8541 44.415 16.228 43.7871 16.0837L36.0688 14.3093C35.4409 14.1648 34.8148 14.5568 34.6704 15.1849C34.5261 15.8128 34.9181 16.4389 35.546 16.5832L43.2643 18.3576Z" fill="#CC197D"/>
<path fill-rule="evenodd" clip-rule="evenodd" d="M39.6666 25.6667C44.8213 25.6667 49 21.488 49 16.3333C49 11.1787 44.8213 7 39.6666 7C34.512 7 30.3333 11.1787 30.3333 16.3333C30.3333 21.488 34.512 25.6667 39.6666 25.6667ZM39.6666 23.3333C43.5326 23.3333 46.6666 20.1993 46.6666 16.3333C46.6666 12.4674 43.5326 9.33333 39.6666 9.33333C35.8007 9.33333 32.6666 12.4674 32.6666 16.3333C32.6666 20.1993 35.8007 23.3333 39.6666 23.3333Z" fill="#CC197D"/>
<path fill-rule="evenodd" clip-rule="evenodd" d="M19.5746 10.786C18.8192 8.99892 16.2929 8.81866 15.2781 10.4795L7.34161 23.4673C6.42611 24.9655 7.44972 26.8783 9.23522 27.0057L23.0794 27.9935C24.8648 28.1209 26.1638 26.3739 25.4823 24.7617L19.5746 10.786ZM17.279 11.6818C17.2773 11.6839 17.2738 11.6884 17.2691 11.6961L9.345 24.6638L9.34682 24.6651C9.3491 24.6666 9.35269 24.6686 9.35891 24.6707C9.36478 24.6728 9.37798 24.6765 9.40128 24.6782L23.2454 25.666C23.2687 25.6677 23.2829 25.6659 23.2902 25.6645C23.2979 25.6631 23.3032 25.6611 23.3076 25.659C23.3132 25.6564 23.3188 25.6527 23.3238 25.6481L17.4255 11.6946C17.4232 11.6893 17.4214 11.6858 17.4202 11.6836C17.4133 11.6796 17.3923 11.6697 17.3576 11.6671C17.3191 11.6644 17.2933 11.673 17.2849 11.6771L17.2821 11.6787L17.2808 11.6799L17.279 11.6818Z" fill="#CC197D"/>
<path fill-rule="evenodd" clip-rule="evenodd" d="M41.2824 42.4191C44.7861 40.7853 46.3021 36.6204 44.6682 33.1165C43.0344 29.6128 38.8695 28.0969 35.3657 29.7307L22.6774 35.6474C19.1736 37.2813 17.6577 41.4461 19.2915 44.9499C20.9254 48.4536 25.0902 49.9696 28.5941 48.3357L41.2824 42.4191ZM23.6635 37.7621C21.3276 38.8514 20.317 41.6279 21.4062 43.9637C22.4955 46.2996 25.2721 47.3102 27.608 46.221L32.8183 43.7913L28.8743 35.3334L23.6635 37.7621ZM34.933 42.8052L30.9886 34.3463L36.3518 31.8454C38.6877 30.7562 41.4643 31.7668 42.5535 34.1027C43.6427 36.4385 42.6321 39.2152 40.2962 40.3044L34.933 42.8052Z" fill="#CC197D"/>
</svg>
