<svg width="64" height="55" viewBox="0 0 64 55" fill="none" xmlns="http://www.w3.org/2000/svg">
<path fill-rule="evenodd" clip-rule="evenodd" d="M32.7653 12.6042C34.6063 12.6042 36.0987 11.3217 36.0987 9.73959C36.0987 8.15753 34.6063 6.87501 32.7653 6.87501C30.9244 6.87501 29.432 8.15753 29.432 9.73959C29.432 11.3217 30.9244 12.6042 32.7653 12.6042ZM32.7653 14.8958C36.0791 14.8958 38.7653 12.5873 38.7653 9.73959C38.7653 6.89188 36.0791 4.58334 32.7653 4.58334C29.4516 4.58334 26.7653 6.89188 26.7653 9.73959C26.7653 12.5873 29.4516 14.8958 32.7653 14.8958Z" fill="#CC197D"/>
<path fill-rule="evenodd" clip-rule="evenodd" d="M26.8714 17.5387C27.2356 17.4022 27.9103 17.1875 28.7654 17.1875H31.432C32.1934 17.1875 32.8019 17.3758 32.9662 17.4265L32.977 17.4298C33.244 17.5123 33.4912 17.6081 33.6952 17.6935C34.1115 17.8677 34.567 18.0909 35.0332 18.3434C35.9744 18.8531 37.124 19.5715 38.3246 20.4794C40.6946 22.2717 43.5027 24.9847 45.1459 28.515C46.1902 30.7585 46.1163 32.9235 45.1447 34.8078C44.236 36.5703 42.6975 37.7912 41.388 38.5859C37.3215 41.0541 37.1307 42.6583 36.096 47.1037C36.0198 48.9445 34.2592 50.4167 32.0987 50.4167C29.8895 50.4167 28.0987 48.8777 28.0987 46.9792C28.0987 41.0979 28.0955 37.5987 27.7863 34.2894C26.0459 35.3796 23.6007 35.0898 22.2716 33.6175C21.9476 33.2587 21.051 32.1745 20.2503 31.1314C19.8447 30.603 19.4172 30.0251 19.0782 29.5138C18.9122 29.2634 18.7287 28.9715 18.575 28.6779C18.4984 28.5318 18.4019 28.3336 18.318 28.1061C18.2526 27.9288 18.0987 27.4866 18.0987 26.9271C18.0987 26.1071 18.4463 25.4696 18.522 25.3306L18.523 25.329L18.5239 25.3273L18.5263 25.3229C18.6524 25.0874 18.7935 24.8757 18.9052 24.7163C19.1358 24.3879 19.4219 24.0298 19.7139 23.6837C20.3079 22.9791 21.0855 22.1357 21.895 21.3241C22.6955 20.5214 23.5996 19.6771 24.4462 19.0047C24.8616 18.6748 25.3502 18.3163 25.8663 18.0185C26.1252 17.869 26.4678 17.6901 26.8714 17.5387ZM28.7654 19.4792C27.7854 19.4792 26.9326 20.1504 26.2562 20.6877C25.5156 21.2758 24.6864 22.0466 23.9196 22.8155C23.1498 23.5873 22.4184 24.3817 21.8731 25.0283C21.5379 25.4259 21.1884 25.834 20.948 26.2822C20.8394 26.4849 20.7654 26.7024 20.7654 26.9271C20.7654 27.4506 21.1034 27.9393 21.3951 28.3792C21.6919 28.8269 22.0828 29.3571 22.4763 29.8695C23.2596 30.8899 24.114 31.9198 24.3786 32.2128C24.8299 32.7127 25.6675 32.8036 26.2494 32.4157C26.8311 32.0279 26.9368 31.3081 26.4855 30.808C26.2804 30.5809 25.4682 29.6055 24.7023 28.6076C24.4391 28.2647 24.1908 27.9315 23.9799 27.6339L23.518 26.9824L24.0392 26.3649C24.5351 25.7776 25.2174 25.0357 25.9443 24.3069C26.108 24.1428 26.272 23.9813 26.4348 23.8241L28.2184 22.1009L28.7391 24.3633C30.7548 33.124 30.7654 36.0056 30.7654 46.9792C30.7654 47.612 31.3623 48.125 32.0987 48.125C32.927 48.125 33.432 47.528 33.432 46.8657C34.5203 42.1897 35.1587 39.5612 39.8496 36.714C40.9366 36.0543 42.0634 35.127 42.7067 33.8793C43.3708 32.5913 43.4627 31.0693 42.67 29.3661C41.2334 26.2797 38.7418 23.8475 36.5628 22.1997C35.4683 21.372 34.4323 20.7266 33.6116 20.2822C33.1255 20.019 32.6191 19.7544 32.0756 19.5866C31.869 19.5228 31.6526 19.4792 31.432 19.4792H28.7654Z" fill="#CC197D"/>
</svg>
