<svg width="40" height="42" viewBox="0 0 40 42" fill="none" xmlns="http://www.w3.org/2000/svg">
<circle cx="20" cy="22" r="20" fill="#FFB9CA"/>
<mask id="mask0_9_1251" style="mask-type:alpha" maskUnits="userSpaceOnUse" x="0" y="2" width="40" height="40">
<circle cx="20" cy="22" r="20" fill="#FFB9CA"/>
</mask>
<g mask="url(#mask0_9_1251)">
<path opacity="0.6" d="M18.5 24.5C10.9 20.9 3 20.3333 0 20.5V27.5L6 40L24.5 45L38.5 37.5L41.5 26L39.5 25.5C35.6667 26.6667 26.1 28.1 18.5 24.5Z" fill="url(#paint0_linear_9_1251)"/>
<path opacity="0.4" d="M17.7667 24.6575C10.548 19.1253 3.49995 15.5 -0.500074 17.5L-1.77332 24.7167L1.30988 41.4133L18.9177 51.2796L34.9679 44.7463L40.7966 31.0724L39.4999 29C35.4999 31.5 27.9999 32.5 17.7667 24.6575Z" fill="url(#paint1_linear_9_1251)"/>
</g>
<path d="M13.1994 9.97468C12.7031 9.38736 12.1904 8.78033 11.7766 8.12881C11.6674 7.95706 11.3628 7.95706 11.2542 8.12881C10.8398 8.78033 10.3271 9.38736 9.83083 9.97468C8.82488 11.1656 7.87476 12.2907 7.87476 13.6214C7.87476 15.4847 9.50745 17 11.5151 17C13.5227 17 15.1554 15.4847 15.1554 13.6214C15.1554 12.2907 14.2053 11.1656 13.1994 9.97468Z" fill="url(#paint2_linear_9_1251)" fill-opacity="0.8"/>
<g style="mix-blend-mode:darken" opacity="0.8">
<path d="M31.829 24.9747C31.3327 24.3874 30.82 23.7803 30.4062 23.1288C30.297 22.9571 29.9924 22.9571 29.8838 23.1288C29.4695 23.7803 28.9568 24.3874 28.4605 24.9747C27.4545 26.1656 26.5044 27.2907 26.5044 28.6214C26.5044 30.4847 28.1371 32 30.1447 32C32.1524 32 33.7851 30.4847 33.7851 28.6214C33.7851 27.2907 32.8349 26.1656 31.829 24.9747Z" fill="url(#paint3_linear_9_1251)" fill-opacity="0.8"/>
<path d="M31.829 24.9747C31.3327 24.3874 30.82 23.7803 30.4062 23.1288C30.297 22.9571 29.9924 22.9571 29.8838 23.1288C29.4695 23.7803 28.9568 24.3874 28.4605 24.9747C27.4545 26.1656 26.5044 27.2907 26.5044 28.6214C26.5044 30.4847 28.1371 32 30.1447 32C32.1524 32 33.7851 30.4847 33.7851 28.6214C33.7851 27.2907 32.8349 26.1656 31.829 24.9747Z" fill="url(#paint4_linear_9_1251)" fill-opacity="0.8"/>
</g>
<g style="mix-blend-mode:darken" opacity="0.8">
<path d="M30.7953 3.51053C29.913 2.46641 29.0016 1.38725 28.2659 0.228997C28.0718 -0.0763323 27.5303 -0.0763323 27.3373 0.228997C26.6006 1.38725 25.6891 2.46641 24.8068 3.51053C23.0185 5.62782 21.3293 7.62797 21.3293 9.99352C21.3293 13.3061 24.2319 16 27.8011 16C31.3702 16 34.2728 13.3061 34.2728 9.99352C34.2728 7.62797 32.5837 5.62782 30.7953 3.51053Z" fill="url(#paint5_linear_9_1251)" fill-opacity="0.8"/>
<path d="M30.7953 3.51053C29.913 2.46641 29.0016 1.38725 28.2659 0.228997C28.0718 -0.0763323 27.5303 -0.0763323 27.3373 0.228997C26.6006 1.38725 25.6891 2.46641 24.8068 3.51053C23.0185 5.62782 21.3293 7.62797 21.3293 9.99352C21.3293 13.3061 24.2319 16 27.8011 16C31.3702 16 34.2728 13.3061 34.2728 9.99352C34.2728 7.62797 32.5837 5.62782 30.7953 3.51053Z" fill="url(#paint6_linear_9_1251)" fill-opacity="0.8"/>
</g>
<defs>
<linearGradient id="paint0_linear_9_1251" x1="5" y1="21" x2="34" y2="36.5" gradientUnits="userSpaceOnUse">
<stop stop-color="#E54C67"/>
<stop offset="1" stop-color="#FF9DB4"/>
</linearGradient>
<linearGradient id="paint1_linear_9_1251" x1="4.88187" y1="17.6422" x2="33.9816" y2="37.774" gradientUnits="userSpaceOnUse">
<stop stop-color="#E54C67"/>
<stop offset="1" stop-color="#FF9DB4"/>
</linearGradient>
<linearGradient id="paint2_linear_9_1251" x1="11.5151" y1="8" x2="11.5151" y2="17" gradientUnits="userSpaceOnUse">
<stop stop-color="#EA5F78"/>
<stop offset="1" stop-color="#FF8FA9"/>
</linearGradient>
<linearGradient id="paint3_linear_9_1251" x1="30.1447" y1="23" x2="30.1447" y2="32" gradientUnits="userSpaceOnUse">
<stop stop-color="#EA5F78"/>
<stop offset="1" stop-color="#FF8FA9"/>
</linearGradient>
<linearGradient id="paint4_linear_9_1251" x1="30.1447" y1="23" x2="30.1447" y2="32" gradientUnits="userSpaceOnUse">
<stop stop-color="#EA5F78"/>
<stop offset="1" stop-color="#FF8FA9"/>
</linearGradient>
<linearGradient id="paint5_linear_9_1251" x1="27.8011" y1="0" x2="27.8011" y2="16" gradientUnits="userSpaceOnUse">
<stop stop-color="#EA5F78"/>
<stop offset="1" stop-color="#FF8FA9"/>
</linearGradient>
<linearGradient id="paint6_linear_9_1251" x1="27.8011" y1="0" x2="27.8011" y2="16" gradientUnits="userSpaceOnUse">
<stop stop-color="#EA5F78"/>
<stop offset="1" stop-color="#FF8FA9"/>
</linearGradient>
</defs>
</svg>
