<svg width="33" height="31" viewBox="0 0 33 31" fill="none" xmlns="http://www.w3.org/2000/svg">
<g filter="url(#filter0_b_157_823)">
<rect width="32.0569" height="30.6667" rx="15.3333" fill="white"/>
</g>
<path d="M16.78 3.66669C17.6447 3.66635 18.4727 3.99407 19.0754 4.57518C19.6781 5.15629 20.0042 5.94131 19.978 6.67396L19.9883 6.84626C20.0094 7.01595 20.0683 7.17971 20.1639 7.33066C20.3501 7.6283 20.655 7.8443 21.0114 7.93101C21.3677 8.01773 21.7462 7.96804 22.1046 7.77147L22.3044 7.67477C23.8045 7.01382 25.6035 7.53907 26.4355 8.89251L27.1833 10.1087C27.203 10.1408 27.2204 10.1739 27.2354 10.2079L27.3048 10.3382C27.9736 11.6761 27.4977 13.2675 26.2271 14.076L25.9133 14.2608C25.7493 14.368 25.6125 14.508 25.5097 14.6763C25.3239 14.9751 25.2729 15.331 25.368 15.6651C25.4631 15.9993 25.6964 16.2841 26.0502 16.4759L26.2538 16.5981C26.8689 17.0014 27.3132 17.5957 27.507 18.2768C27.7256 19.0454 27.6084 19.8639 27.1753 20.5605L26.3708 21.8165L26.2496 21.9937C25.3044 23.2676 23.4692 23.6568 22.0688 22.8991L21.9028 22.819C21.7296 22.7464 21.5428 22.7065 21.3727 22.7021C21.0027 22.7004 20.6474 22.8374 20.3858 23.0826C20.1242 23.3278 19.978 23.6609 19.9789 24.0481L19.969 24.2484C19.8336 25.7987 18.4488 27 16.7804 27H15.2738C13.5068 27 12.0744 25.6575 12.0762 24.0546L12.0659 23.8823C12.0448 23.7126 11.9859 23.5488 11.8855 23.3901C11.7033 23.0917 11.4016 22.8738 11.0472 22.7849C10.6929 22.6961 10.3154 22.7435 9.94996 22.9416L9.73284 23.0432C9.04621 23.3326 8.2717 23.3861 7.54597 23.1928C6.72718 22.9746 6.03487 22.4597 5.63087 21.7761L4.85361 20.5182L4.75016 20.3319C4.04234 18.9315 4.59716 17.2481 6.0053 16.4854L6.13373 16.41C6.50991 16.166 6.73547 15.7636 6.73547 15.3334C6.73547 14.8655 6.46915 14.4331 6.00327 14.1801L5.81424 14.0664C4.45508 13.1806 4.0398 11.4606 4.88178 10.0915L5.67362 8.87195C6.55427 7.43941 8.50589 6.94522 10.0069 7.75202L10.1694 7.8332C10.335 7.90446 10.515 7.94228 10.6882 7.94401C11.4522 7.94409 12.0745 7.36913 12.0861 6.63213L12.0965 6.40579C12.1591 5.70504 12.4835 5.0465 13.0139 4.54702C13.6122 3.9835 14.4255 3.66669 15.2738 3.66669H16.78ZM16.7804 5.35572H15.2738C14.905 5.35572 14.5514 5.49346 14.2912 5.73848C14.0606 5.95564 13.9195 6.24199 13.8948 6.5094L13.8784 6.86511C13.7522 8.41604 12.3696 9.6332 10.6788 9.633C10.2429 9.62876 9.81325 9.53843 9.37508 9.34865L9.14048 9.23268C8.47204 8.8737 7.6197 9.08953 7.22416 9.73247L6.43231 10.952C6.06948 11.5422 6.25094 12.2938 6.81276 12.6608L7.13071 12.8495C8.00637 13.4045 8.53758 14.3335 8.53758 15.3334C8.53758 16.3187 8.0212 17.2397 7.12857 17.8179L6.93855 17.9299C6.31311 18.269 6.07174 19.0014 6.36243 19.5781L6.43108 19.7024L7.19848 20.9432C7.37869 21.2479 7.68104 21.4728 8.03864 21.5681C8.35558 21.6525 8.69386 21.6291 8.95776 21.5188L9.09035 21.458C9.82228 21.0577 10.6945 20.948 11.5131 21.1533C12.3317 21.3587 13.0289 21.8619 13.4424 22.5397C13.6649 22.891 13.8057 23.282 13.8602 23.7316L13.8847 24.1441C13.9606 24.8002 14.5536 25.311 15.2738 25.311H16.7804C17.5088 25.311 18.1139 24.7861 18.1708 24.143L18.1777 24.0158C18.1736 23.2182 18.5098 22.4522 19.1115 21.8883C19.7132 21.3243 20.5305 21.0092 21.4012 21.0134C21.8284 21.0241 22.2488 21.1138 22.6786 21.2951L23.064 21.4795C23.6688 21.7284 24.3862 21.5468 24.7498 21.0578L24.8382 20.9283L25.6241 19.7009C25.8098 19.4021 25.8608 19.0462 25.7657 18.712C25.6814 18.4159 25.4883 18.1575 25.254 18.0029L24.9219 17.8061C24.287 17.4039 23.8255 16.799 23.6267 16.1003C23.4081 15.3318 23.5253 14.5133 23.9492 13.8314C24.1813 13.4517 24.5001 13.1252 24.9159 12.8546L25.1119 12.7388C25.7364 12.3965 25.9776 11.6642 25.689 11.0853L25.6028 10.9295L25.5873 10.8968L24.8741 9.73579C24.5368 9.18707 23.8348 8.94997 23.2392 9.1373L23.1039 9.18812L22.9781 9.2482C22.2485 9.651 21.378 9.76528 20.5585 9.56583C19.7389 9.36639 19.0377 8.86961 18.6118 8.18888C18.3893 7.83757 18.2485 7.4465 18.1941 6.99699L18.178 6.70292C18.1889 6.34912 18.0465 6.00628 17.7832 5.75249C17.52 5.4987 17.1584 5.35572 16.7804 5.35572ZM16.0326 11.5205C18.2794 11.5205 20.1007 13.2276 20.1007 15.3334C20.1007 17.4391 18.2794 19.1462 16.0326 19.1462C13.7858 19.1462 11.9645 17.4391 11.9645 15.3334C11.9645 13.2276 13.7858 11.5205 16.0326 11.5205ZM16.0326 13.2095C14.7811 13.2095 13.7666 14.1604 13.7666 15.3334C13.7666 16.5063 14.7811 17.4572 16.0326 17.4572C17.2841 17.4572 18.2986 16.5063 18.2986 15.3334C18.2986 14.1604 17.2841 13.2095 16.0326 13.2095Z" fill="#271E4A"/>
<defs>
<filter id="filter0_b_157_823" x="-12" y="-12" width="56.0571" height="54.6667" filterUnits="userSpaceOnUse" color-interpolation-filters="sRGB">
<feFlood flood-opacity="0" result="BackgroundImageFix"/>
<feGaussianBlur in="BackgroundImageFix" stdDeviation="6"/>
<feComposite in2="SourceAlpha" operator="in" result="effect1_backgroundBlur_157_823"/>
<feBlend mode="normal" in="SourceGraphic" in2="effect1_backgroundBlur_157_823" result="shape"/>
</filter>
</defs>
</svg>
