<svg width="62" height="55" viewBox="0 0 62 55" fill="none" xmlns="http://www.w3.org/2000/svg">
<path d="M31 6.87473C18.1594 6.87473 7.75 16.1088 7.75 27.4998C7.75 38.8906 18.1594 48.1248 31 48.1248C43.8406 48.1248 54.25 38.8906 54.25 27.4998C54.25 25.4391 53.9094 23.4491 53.2753 21.5716L50.8003 22.2303C51.3639 23.8992 51.6667 25.668 51.6667 27.4998C51.6667 37.6249 42.4139 45.8331 31 45.8331C19.5861 45.8331 10.3333 37.6249 10.3333 27.4998C10.3333 17.3745 19.5861 9.16639 31 9.16639V6.87473Z" fill="#CC197D"/>
<path d="M23.4619 17.5512C23.1052 17.0031 23.3169 16.3023 23.9347 15.986L27.3815 14.2206C27.8052 14.0037 28.3308 14.0177 28.739 14.2568C29.1473 14.4959 29.3683 14.9191 29.3097 15.35L28.726 19.6473L30.3665 18.8071C30.9843 18.4907 31.7742 18.6785 32.131 19.2265C32.4876 19.7746 32.2759 20.4754 31.6581 20.7917L27.7805 22.7778C27.3569 22.9948 26.8313 22.9808 26.423 22.7417C26.0147 22.5026 25.7938 22.0793 25.8523 21.6483L26.4359 17.3511L25.2264 17.9707C24.6086 18.287 23.8186 18.0992 23.4619 17.5512Z" fill="#CC197D"/>
<path d="M34.2607 9.24584C33.5716 9.40962 33.1626 10.0379 33.3472 10.6492C33.5319 11.2605 34.2402 11.6232 34.9293 11.4594L37.4245 10.8663L34.7783 16.7149C34.596 17.1176 34.6859 17.5772 35.0105 17.9019C35.3351 18.2267 35.8387 18.3607 36.3112 18.2484L41.9257 16.9139C42.6148 16.7501 43.0237 16.1218 42.839 15.5106C42.6545 14.8993 41.9461 14.5365 41.2571 14.7004L38.138 15.4417L40.7843 9.5932C40.9665 9.19043 40.8766 8.73088 40.552 8.40615C40.2274 8.08142 39.7238 7.94726 39.2513 8.05959L34.2607 9.24584Z" fill="#CC197D"/>
<path d="M45.926 8.02056C45.926 7.38773 46.5043 6.87473 47.2177 6.87473H52.9583C53.4279 6.87473 53.8604 7.10076 54.088 7.46509C54.3157 7.82941 54.3026 8.27462 54.0537 8.62784L48.8304 16.0414H52.9583C53.6717 16.0414 54.25 16.5544 54.25 17.1873C54.25 17.82 53.6717 18.3331 52.9583 18.3331H46.5C46.0305 18.3331 45.5979 18.107 45.3703 17.7427C45.1426 17.3784 45.1558 16.9331 45.4047 16.58L50.6279 9.16639H47.2177C46.5043 9.16639 45.926 8.65338 45.926 8.02056Z" fill="#CC197D"/>
<path d="M18.605 32.8263C17.6066 32.5448 16.7455 31.9101 16.6475 31.0583C16.6279 30.8878 16.6954 30.7183 16.8316 30.5966C16.9677 30.4749 17.1581 30.4136 17.3504 30.4297C19.8448 30.6376 22.235 29.5727 23.9056 27.1533C24.0209 26.9866 24.224 26.8833 24.4445 26.8798C24.665 26.8762 24.8723 26.9727 24.9944 27.1356C25.5138 27.8292 25.5654 28.9196 25.1914 29.914C24.8043 30.9435 23.9306 31.9712 22.4375 32.5443C21.0015 33.0955 19.6483 33.1205 18.605 32.8263Z" fill="#CC197D"/>
<path d="M40.9966 27.5039C41.7026 26.8172 42.0905 25.8858 41.6953 25.1045C41.6161 24.9481 41.4622 24.8314 41.2757 24.7863C41.0892 24.7413 40.8898 24.7727 40.7322 24.8719C38.6893 26.1583 36.0192 26.2963 33.2086 24.942C33.0147 24.8487 32.7807 24.8495 32.5877 24.9442C32.3947 25.0389 32.2696 25.2144 32.2558 25.4097C32.1969 26.2407 32.7666 27.2078 33.6511 27.9032C34.5665 28.623 35.9025 29.1255 37.5185 28.9596C39.0729 28.8 40.2589 28.2215 40.9966 27.5039Z" fill="#CC197D"/>
<path fill-rule="evenodd" clip-rule="evenodd" d="M41.9117 36.5002C39.0043 32.9662 34.6956 31.0979 30.6651 32.056C26.6345 33.014 23.9561 36.5431 23.4302 40.8932C23.2822 42.118 24.6226 42.9823 25.9639 42.6635L40.7153 39.1571C42.0565 38.8383 42.7303 37.4952 41.9117 36.5002ZM31.3338 34.2696C33.7793 33.6883 36.778 34.62 39.1983 37.1452L26.1436 40.2482C26.8164 36.9878 28.8882 34.8509 31.3338 34.2696Z" fill="#CC197D"/>
</svg>
