<svg width="26" height="24" viewBox="0 0 26 24" fill="none" xmlns="http://www.w3.org/2000/svg">
<g clip-path="url(#clip0_9_1267)">
<path d="M17.3556 7.75994C16.1419 6.58994 14.5548 5.99994 12.9573 5.99994V11.9999L8.55902 16.2399C10.9864 18.5799 14.9283 18.5799 17.366 16.2399C19.7933 13.8999 19.7933 10.0999 17.3556 7.75994ZM12.9573 1.99994C7.23124 1.99994 2.58398 6.47994 2.58398 11.9999C2.58398 17.5199 7.23124 21.9999 12.9573 21.9999C18.6834 21.9999 23.3307 17.5199 23.3307 11.9999C23.3307 6.47994 18.6834 1.99994 12.9573 1.99994ZM12.9573 19.9999C8.3723 19.9999 4.65865 16.4199 4.65865 11.9999C4.65865 7.57994 8.3723 3.99994 12.9573 3.99994C17.5423 3.99994 21.256 7.57994 21.256 11.9999C21.256 16.4199 17.5423 19.9999 12.9573 19.9999Z" fill="#FF8D8D"/>
</g>
<defs>
<clipPath id="clip0_9_1267">
<rect width="24.896" height="24" fill="white" transform="translate(0.509277)"/>
</clipPath>
</defs>
</svg>
